# Created by Kenney (www.kenney.nl)

mtllib chair.mtl

g chair

v -0.43821509999999997 0.9320179 -0.10792848 1 1 1
v -0.43821509999999997 0.9320179 -0.4972149 1 1 1
v -8.859863999999999e-13 0.9320179 -0.17334477 1 1 1
v -2.4188271e-12 0.9320179 -0.5626311 1 1 1
v 0.43821509999999997 0.9320179 -0.10792848 1 1 1
v 0.43821509999999997 0.9320179 -0.4972149 1 1 1
v 0.5024151 0.3920178999999999 -0.09834477 1 1 1
v 0.5024151 0.8720178999999999 -0.09834477 1 1 1
v 0.5024151 0.3920178999999999 -0.48763110000000004 1 1 1
v 0.5024151 0.8720178999999999 -0.48763110000000004 1 1 1
v 0.43821509999999997 0.3320179000000001 -0.10792848 1 1 1
v 0.43821509999999997 0.3320179000000001 -0.4972149 1 1 1
v -8.859863999999999e-13 0.3320179000000001 -0.17334477 1 1 1
v -2.4188271e-12 0.3320179000000001 -0.5626311 1 1 1
v -0.5024151 0.8720178999999999 -0.09834477 1 1 1
v -0.5024151 0.3920178999999999 -0.09834477 1 1 1
v -0.5024151 0.8720178999999999 -0.48763110000000004 1 1 1
v -0.5024151 0.3920178999999999 -0.48763110000000004 1 1 1
v -0.43821509999999997 0.3320179000000001 -0.4972149 1 1 1
v -0.43821509999999997 0.3320179000000001 -0.10792848 1 1 1
v -0.5197499999999999 -0.27578 0.0428811 1 1 1
v -0.448875 -0.27578 0.49175610000000003 1 1 1
v -0.448875 -0.27578 -0.40599389999999996 1 1 1
v -2.0531127e-12 -0.27578 -0.4768689 1 1 1
v 2.0428794e-12 -0.27578 0.5626311 1 1 1
v 0.448875 -0.27578 -0.40599389999999996 1 1 1
v 0.448875 -0.27578 0.49175610000000003 1 1 1
v 0.5197499999999999 -0.27578 0.0428811 1 1 1
v -0.5197499999999999 0.083005 0.0428811 1 1 1
v -0.448875 0.083005 -0.40599389999999996 1 1 1
v -0.448875 0.083005 0.49175610000000003 1 1 1
v 2.0428794e-12 0.083005 0.5626311 1 1 1
v -2.0531127e-12 0.083005 -0.4768689 1 1 1
v 0.448875 0.083005 0.49175610000000003 1 1 1
v 0.448875 0.083005 -0.40599389999999996 1 1 1
v 0.5197499999999999 0.083005 0.0428811 1 1 1
v 0.06436476 -0.5 0.3155757 1 1 1
v 0.09908639999999999 -0.5 0.48918419999999996 1 1 1
v 0.09908639999999999 -0.5 0.14196747 1 1 1
v 0.27269472 -0.5 0.5239058999999999 1 1 1
v 0.27269472 -0.5 0.10724583 1 1 1
v 0.4463031 -0.5 0.48918419999999996 1 1 1
v 0.4463031 -0.5 0.14196747 1 1 1
v 0.48102480000000003 -0.5 0.3155757 1 1 1
v 0.14248848 -0.27578 0.18536958 1 1 1
v 0.27269472 -0.27578 0.15932832 1 1 1
v 0.27269472 -0.27578 0.4718232 1 1 1
v 0.14248848 -0.27578 0.445782 1 1 1
v 0.4029009 -0.27578 0.445782 1 1 1
v 0.4289421 -0.27578 0.3155757 1 1 1
v 0.11644725 -0.27578 0.3155757 1 1 1
v 0.4029009 -0.27578 0.18536958 1 1 1
v 0.06693672 -0.5 -0.23238561000000002 1 1 1
v 0.10165836 -0.5 -0.05877729 1 1 1
v 0.10165836 -0.5 -0.40599389999999996 1 1 1
v 0.27526668 -0.5 -0.024055637999999997 1 1 1
v 0.27526668 -0.5 -0.44071560000000004 1 1 1
v 0.448875 -0.5 -0.05877729 1 1 1
v 0.448875 -0.5 -0.40599389999999996 1 1 1
v 0.4835967 -0.5 -0.23238561000000002 1 1 1
v 0.14506047 -0.27578 -0.36259169999999996 1 1 1
v 0.27526668 -0.27578 -0.3886332 1 1 1
v 0.27526668 -0.27578 -0.07613813999999999 1 1 1
v 0.14506047 -0.27578 -0.10217936999999999 1 1 1
v 0.40547279999999997 -0.27578 -0.10217936999999999 1 1 1
v 0.43151399999999995 -0.27578 -0.23238561000000002 1 1 1
v 0.11901920999999999 -0.27578 -0.23238561000000002 1 1 1
v 0.40547279999999997 -0.27578 -0.36259169999999996 1 1 1
v -0.4835967 -0.5 0.3155757 1 1 1
v -0.448875 -0.5 0.48918419999999996 1 1 1
v -0.448875 -0.5 0.14196747 1 1 1
v -0.27526668 -0.5 0.5239058999999999 1 1 1
v -0.27526668 -0.5 0.10724583 1 1 1
v -0.10165836 -0.5 0.48918419999999996 1 1 1
v -0.10165836 -0.5 0.14196747 1 1 1
v -0.06693672 -0.5 0.3155757 1 1 1
v -0.40547279999999997 -0.27578 0.18536958 1 1 1
v -0.27526668 -0.27578 0.15932832 1 1 1
v -0.27526668 -0.27578 0.4718232 1 1 1
v -0.40547279999999997 -0.27578 0.445782 1 1 1
v -0.14506047 -0.27578 0.445782 1 1 1
v -0.11901920999999999 -0.27578 0.3155757 1 1 1
v -0.43151399999999995 -0.27578 0.3155757 1 1 1
v -0.14506047 -0.27578 0.18536958 1 1 1
v -0.48102480000000003 -0.5 -0.23238561000000002 1 1 1
v -0.4463031 -0.5 -0.05877729 1 1 1
v -0.4463031 -0.5 -0.40599389999999996 1 1 1
v -0.27269472 -0.5 -0.024055637999999997 1 1 1
v -0.27269472 -0.5 -0.44071560000000004 1 1 1
v -0.09908639999999999 -0.5 -0.05877729 1 1 1
v -0.09908639999999999 -0.5 -0.40599389999999996 1 1 1
v -0.06436476 -0.5 -0.23238561000000002 1 1 1
v -0.4029009 -0.27578 -0.36259169999999996 1 1 1
v -0.27269472 -0.27578 -0.3886332 1 1 1
v -0.27269472 -0.27578 -0.07613813999999999 1 1 1
v -0.4029009 -0.27578 -0.10217936999999999 1 1 1
v -0.14248848 -0.27578 -0.10217936999999999 1 1 1
v -0.11644725 -0.27578 -0.23238561000000002 1 1 1
v -0.4289421 -0.27578 -0.23238561000000002 1 1 1
v -0.14248848 -0.27578 -0.36259169999999996 1 1 1
v -0.15001875 0.083005 -0.27015015000000003 1 1 1
v -0.17128125 0.3320179000000001 -0.28965015 1 1 1
v -0.1771875 0.083005 -0.40599389999999996 1 1 1
v -0.19490625 0.3320179000000001 -0.40777529999999995 1 1 1
v -0.4760436 0.083005 -0.27015015000000003 1 1 1
v -0.448875 0.083005 -0.40599389999999996 1 1 1
v -0.4547811 0.3320179000000001 -0.28965015 1 1 1
v -0.43115610000000004 0.3320179000000001 -0.40777529999999995 1 1 1
v -0.3130311 0.083005 -0.4331625 1 1 1
v -0.3130311 0.3320179000000001 -0.43140029999999996 1 1 1
v -0.448875 0.083005 -0.1343064 1 1 1
v -0.43115610000000004 0.3320179000000001 -0.17152515 1 1 1
v -0.3130311 0.083005 -0.10713765 1 1 1
v -0.3130311 0.3320179000000001 -0.14790015 1 1 1
v -0.1771875 0.083005 -0.1343064 1 1 1
v -0.19490625 0.3320179000000001 -0.17152515 1 1 1
v 0.15001875 0.083005 -0.27015015000000003 1 1 1
v 0.1771875 0.083005 -0.1343064 1 1 1
v 0.1771875 0.083005 -0.40599389999999996 1 1 1
v 0.3130311 0.083005 -0.4331625 1 1 1
v 0.3130311 0.083005 -0.10713765 1 1 1
v 0.448875 0.083005 -0.1343064 1 1 1
v 0.448875 0.083005 -0.40599389999999996 1 1 1
v 0.4760436 0.083005 -0.27015015000000003 1 1 1
v 0.17128125 0.3320179000000001 -0.28965015 1 1 1
v 0.19490625 0.3320179000000001 -0.40777529999999995 1 1 1
v 0.19490625 0.3320179000000001 -0.17152515 1 1 1
v 0.3130311 0.3320179000000001 -0.14790015 1 1 1
v 0.3130311 0.3320179000000001 -0.43140029999999996 1 1 1
v 0.43115610000000004 0.3320179000000001 -0.17152515 1 1 1
v 0.43115610000000004 0.3320179000000001 -0.40777529999999995 1 1 1
v 0.4547811 0.3320179000000001 -0.28965015 1 1 1

vn -0.3971877 0.9177374 1.565058E-12
vn -0.3372137 0.9414281 1.328739E-12
vn 0 1 0
vn 0.3971877 0.9177374 -1.565058E-12
vn 0.3372137 0.9414281 -1.328739E-12
vn 0.9233611 -0.3839326 -3.638364E-12
vn 0.9233611 0.3839326 -3.638364E-12
vn 0.911405 -0.4115106 -3.591253E-12
vn 0.911405 0.4115106 -3.591253E-12
vn 0.3971877 -0.9177374 -1.565058E-12
vn 0.3372137 -0.9414281 -1.328739E-12
vn -0.1476429 0 0.9890407
vn 3.940348E-12 0 1
vn -3.940348E-12 0 -1
vn 0.1476429 0 -0.9890407
vn -0.9233611 0.3839326 3.638364E-12
vn -0.9233611 -0.3839326 3.638364E-12
vn -0.911405 0.4115106 3.591253E-12
vn -0.911405 -0.4115106 3.591253E-12
vn -0.3372137 -0.9414281 1.328739E-12
vn -0.3971877 -0.9177374 1.565058E-12
vn 0 -1 0
vn 0.1476429 0 0.9890407
vn -0.1476429 0 -0.9890407
vn -1 0 3.940348E-12
vn -0.987763 0 -0.1559626
vn -0.987763 0 0.1559626
vn -0.1559626 0 0.987763
vn 0.1559626 0 0.987763
vn 0.987763 0 0.1559626
vn 1 0 -3.940348E-12
vn 0.987763 0 -0.1559626
vn 0.1559626 0 -0.987763
vn -0.1559626 0 -0.987763
vn -0.1912186 0.2220842 -0.9560931
vn -3.838163E-12 0.2262592 -0.974067
vn 3.838163E-12 0.2262592 0.974067
vn -0.1912186 0.2220842 0.9560931
vn 0.9560931 0.2220842 0.1912186
vn 0.974067 0.2262592 -3.838163E-12
vn -0.9560931 0.2220842 0.1912186
vn -0.974067 0.2262592 3.838163E-12
vn -0.9560931 0.2220842 -0.1912186
vn 0.9560931 0.2220842 -0.1912186
vn 0.1912186 0.2220842 0.9560931
vn 0.1912186 0.2220842 -0.9560931
vn 0.9962655 0.08581512 0.009536752
vn 0.9963911 0.08430848 -0.009839747
vn 0.9782968 0.06821205 -0.1956593
vn -0.9962655 0.08581512 0.009536752
vn -0.9782968 0.06821205 -0.1956593
vn -0.9963911 0.08430848 -0.009839747
vn -3.94025E-12 0.00707777 -0.999975
vn 0.1961114 0.006940332 -0.9805571
vn -0.1961114 0.006940332 -0.9805571
vn -0.975802 0.09860384 0.1951604
vn 3.888593E-12 0.1615463 0.9868652
vn -0.1936374 0.1584887 0.9681869
vn 0.975802 0.09860384 0.1951604
vn 0.1936374 0.1584887 0.9681869

vt 0.21875 0.225
vt 0.21875 0.153
vt 0.21875 0.217
vt 0.21875 0.145
vt 0.34375 0.225
vt 0.34375 0.025
vt 0.34375 0.075
vt 0.34375 0.175

usemtl colormap

f 3/1/3 2/1/2 1/1/1
f 2/1/2 3/1/3 4/1/3
f 4/1/3 3/1/3 5/1/4
f 4/1/3 5/1/4 6/1/5
f 9/2/8 8/3/7 7/2/6
f 8/3/7 9/2/8 10/3/9
f 8/3/7 6/1/5 5/1/4
f 6/1/5 8/3/7 10/3/9
f 12/4/11 7/2/6 11/4/10
f 7/2/6 12/4/11 9/2/8
f 7/2/12 13/4/13 11/4/12
f 13/4/13 7/2/12 3/1/13
f 3/1/13 7/2/12 8/3/12
f 3/1/13 8/3/12 5/1/12
f 4/1/14 12/4/15 14/4/14
f 12/4/15 4/1/14 9/2/15
f 9/2/15 4/1/14 10/3/15
f 10/3/15 4/1/14 6/1/15
f 17/3/18 16/2/17 15/3/16
f 16/2/17 17/3/18 18/2/19
f 14/4/22 20/4/21 19/4/20
f 20/4/21 14/4/22 13/4/22
f 13/4/22 14/4/22 11/4/10
f 11/4/10 14/4/22 12/4/11
f 19/4/20 16/2/17 18/2/19
f 16/2/17 19/4/20 20/4/21
f 1/1/1 17/3/18 15/3/16
f 17/3/18 1/1/1 2/1/2
f 3/1/13 20/4/23 13/4/13
f 20/4/23 3/1/13 16/2/23
f 16/2/23 3/1/13 15/3/23
f 15/3/23 3/1/13 1/1/23
f 18/2/24 14/4/14 19/4/24
f 14/4/14 18/2/24 4/1/14
f 4/1/14 18/2/24 17/3/24
f 4/1/14 17/3/24 2/1/24
f 23/4/22 22/4/22 21/4/22
f 22/4/22 23/4/22 24/4/22
f 22/4/22 24/4/22 25/4/22
f 25/4/22 24/4/22 26/4/22
f 25/4/22 26/4/22 27/4/22
f 27/4/22 26/4/22 28/4/22
f 31/1/3 30/1/3 29/1/3
f 30/1/3 31/1/3 32/1/3
f 30/1/3 32/1/3 33/1/3
f 33/1/3 32/1/3 34/1/3
f 33/1/3 34/1/3 35/1/3
f 35/1/3 34/1/3 36/1/3
f 30/1/26 21/4/25 29/1/25
f 21/4/25 30/1/26 23/4/26
f 29/1/25 22/4/27 31/1/27
f 22/4/27 29/1/25 21/4/25
f 32/1/13 22/4/28 25/4/13
f 22/4/28 32/1/13 31/1/28
f 34/1/29 25/4/13 27/4/29
f 25/4/13 34/1/29 32/1/13
f 28/4/31 34/1/30 27/4/30
f 34/1/30 28/4/31 36/1/31
f 26/4/32 36/1/31 28/4/31
f 36/1/31 26/4/32 35/1/32
f 33/1/14 26/4/33 24/4/14
f 26/4/33 33/1/14 35/1/33
f 30/1/34 24/4/14 23/4/34
f 24/4/14 30/1/34 33/1/14
f 39/5/22 38/5/22 37/5/22
f 38/5/22 39/5/22 40/5/22
f 40/5/22 39/5/22 41/5/22
f 40/5/22 41/5/22 42/5/22
f 42/5/22 41/5/22 43/5/22
f 42/5/22 43/5/22 44/5/22
f 45/6/35 41/5/36 39/5/35
f 41/5/36 45/6/35 46/6/36
f 47/6/37 38/5/38 40/5/37
f 38/5/38 47/6/37 48/6/38
f 44/5/40 49/6/39 42/5/39
f 49/6/39 44/5/40 50/6/40
f 48/6/41 37/5/42 38/5/41
f 37/5/42 48/6/41 51/6/42
f 45/6/43 37/5/42 51/6/42
f 37/5/42 45/6/43 39/5/43
f 43/5/44 50/6/40 44/5/40
f 50/6/40 43/5/44 52/6/44
f 49/6/45 40/5/37 42/5/45
f 40/5/37 49/6/45 47/6/37
f 46/6/36 43/5/46 41/5/36
f 43/5/46 46/6/36 52/6/46
f 55/5/22 54/5/22 53/5/22
f 54/5/22 55/5/22 56/5/22
f 56/5/22 55/5/22 57/5/22
f 56/5/22 57/5/22 58/5/22
f 58/5/22 57/5/22 59/5/22
f 58/5/22 59/5/22 60/5/22
f 61/6/35 57/5/36 55/5/35
f 57/5/36 61/6/35 62/6/36
f 63/6/37 54/5/38 56/5/37
f 54/5/38 63/6/37 64/6/38
f 60/5/40 65/6/39 58/5/39
f 65/6/39 60/5/40 66/6/40
f 64/6/41 53/5/42 54/5/41
f 53/5/42 64/6/41 67/6/42
f 61/6/43 53/5/42 67/6/42
f 53/5/42 61/6/43 55/5/43
f 59/5/44 66/6/40 60/5/40
f 66/6/40 59/5/44 68/6/44
f 65/6/45 56/5/37 58/5/45
f 56/5/37 65/6/45 63/6/37
f 62/6/36 59/5/46 57/5/36
f 59/5/46 62/6/36 68/6/46
f 71/5/22 70/5/22 69/5/22
f 70/5/22 71/5/22 72/5/22
f 72/5/22 71/5/22 73/5/22
f 72/5/22 73/5/22 74/5/22
f 74/5/22 73/5/22 75/5/22
f 74/5/22 75/5/22 76/5/22
f 77/6/35 73/5/36 71/5/35
f 73/5/36 77/6/35 78/6/36
f 79/6/37 70/5/38 72/5/37
f 70/5/38 79/6/37 80/6/38
f 76/5/40 81/6/39 74/5/39
f 81/6/39 76/5/40 82/6/40
f 80/6/41 69/5/42 70/5/41
f 69/5/42 80/6/41 83/6/42
f 77/6/43 69/5/42 83/6/42
f 69/5/42 77/6/43 71/5/43
f 75/5/44 82/6/40 76/5/40
f 82/6/40 75/5/44 84/6/44
f 81/6/45 72/5/37 74/5/45
f 72/5/37 81/6/45 79/6/37
f 78/6/36 75/5/46 73/5/36
f 75/5/46 78/6/36 84/6/46
f 87/5/22 86/5/22 85/5/22
f 86/5/22 87/5/22 88/5/22
f 88/5/22 87/5/22 89/5/22
f 88/5/22 89/5/22 90/5/22
f 90/5/22 89/5/22 91/5/22
f 90/5/22 91/5/22 92/5/22
f 93/6/35 89/5/36 87/5/35
f 89/5/36 93/6/35 94/6/36
f 95/6/37 86/5/38 88/5/37
f 86/5/38 95/6/37 96/6/38
f 92/5/40 97/6/39 90/5/39
f 97/6/39 92/5/40 98/6/40
f 96/6/41 85/5/42 86/5/41
f 85/5/42 96/6/41 99/6/42
f 93/6/43 85/5/42 99/6/42
f 85/5/42 93/6/43 87/5/43
f 91/5/44 98/6/40 92/5/40
f 98/6/40 91/5/44 100/6/44
f 97/6/45 88/5/37 90/5/45
f 88/5/37 97/6/45 95/6/37
f 94/6/36 91/5/46 89/5/36
f 91/5/46 94/6/36 100/6/46
f 103/7/49 102/8/48 101/7/47
f 102/8/48 103/7/49 104/8/49
f 107/8/52 106/7/51 105/7/50
f 106/7/51 107/8/52 108/8/51
f 110/8/53 103/7/54 109/7/53
f 103/7/54 110/8/53 104/8/54
f 108/8/55 109/7/53 106/7/55
f 109/7/53 108/8/55 110/8/53
f 112/8/56 105/7/50 111/7/56
f 105/7/50 112/8/56 107/8/52
f 114/8/57 111/7/58 113/7/57
f 111/7/58 114/8/57 112/8/58
f 101/7/47 116/8/59 115/7/59
f 116/8/59 101/7/47 102/8/48
f 112/8/3 108/8/3 107/8/3
f 108/8/3 112/8/3 114/8/3
f 108/8/3 114/8/3 110/8/3
f 110/8/3 114/8/3 116/8/3
f 110/8/3 116/8/3 104/8/3
f 104/8/3 116/8/3 102/8/3
f 116/8/60 113/7/57 115/7/60
f 113/7/57 116/8/60 114/8/57
f 106/7/22 111/7/22 105/7/22
f 111/7/22 106/7/22 109/7/22
f 111/7/22 109/7/22 113/7/22
f 113/7/22 109/7/22 115/7/22
f 115/7/22 109/7/22 103/7/22
f 115/7/22 103/7/22 101/7/22
f 119/7/22 118/7/22 117/7/22
f 118/7/22 119/7/22 120/7/22
f 118/7/22 120/7/22 121/7/22
f 121/7/22 120/7/22 122/7/22
f 122/7/22 120/7/22 123/7/22
f 122/7/22 123/7/22 124/7/22
f 127/8/3 126/8/3 125/8/3
f 126/8/3 127/8/3 128/8/3
f 126/8/3 128/8/3 129/8/3
f 129/8/3 128/8/3 130/8/3
f 129/8/3 130/8/3 131/8/3
f 131/8/3 130/8/3 132/8/3
f 128/8/57 118/7/58 121/7/57
f 118/7/58 128/8/57 127/8/58
f 124/7/47 130/8/59 122/7/59
f 130/8/59 124/7/47 132/8/48
f 123/7/49 132/8/48 124/7/47
f 132/8/48 123/7/49 131/8/49
f 127/8/56 117/7/50 118/7/56
f 117/7/50 127/8/56 125/8/52
f 130/8/60 121/7/57 122/7/60
f 121/7/57 130/8/60 128/8/57
f 126/8/55 120/7/53 119/7/55
f 120/7/53 126/8/55 129/8/53
f 129/8/53 123/7/54 120/7/53
f 123/7/54 129/8/53 131/8/54
f 125/8/52 119/7/51 117/7/50
f 119/7/51 125/8/52 126/8/51

g chair




usemtl colormap

f 3/1/3 2/1/2 1/1/1
f 2/1/2 3/1/3 4/1/3
f 4/1/3 3/1/3 5/1/4
f 4/1/3 5/1/4 6/1/5
f 9/2/8 8/3/7 7/2/6
f 8/3/7 9/2/8 10/3/9
f 8/3/7 6/1/5 5/1/4
f 6/1/5 8/3/7 10/3/9
f 12/4/11 7/2/6 11/4/10
f 7/2/6 12/4/11 9/2/8
f 7/2/12 13/4/13 11/4/12
f 13/4/13 7/2/12 3/1/13
f 3/1/13 7/2/12 8/3/12
f 3/1/13 8/3/12 5/1/12
f 4/1/14 12/4/15 14/4/14
f 12/4/15 4/1/14 9/2/15
f 9/2/15 4/1/14 10/3/15
f 10/3/15 4/1/14 6/1/15
f 17/3/18 16/2/17 15/3/16
f 16/2/17 17/3/18 18/2/19
f 14/4/22 20/4/21 19/4/20
f 20/4/21 14/4/22 13/4/22
f 13/4/22 14/4/22 11/4/10
f 11/4/10 14/4/22 12/4/11
f 19/4/20 16/2/17 18/2/19
f 16/2/17 19/4/20 20/4/21
f 1/1/1 17/3/18 15/3/16
f 17/3/18 1/1/1 2/1/2
f 3/1/13 20/4/23 13/4/13
f 20/4/23 3/1/13 16/2/23
f 16/2/23 3/1/13 15/3/23
f 15/3/23 3/1/13 1/1/23
f 18/2/24 14/4/14 19/4/24
f 14/4/14 18/2/24 4/1/14
f 4/1/14 18/2/24 17/3/24
f 4/1/14 17/3/24 2/1/24
f 23/4/22 22/4/22 21/4/22
f 22/4/22 23/4/22 24/4/22
f 22/4/22 24/4/22 25/4/22
f 25/4/22 24/4/22 26/4/22
f 25/4/22 26/4/22 27/4/22
f 27/4/22 26/4/22 28/4/22
f 31/1/3 30/1/3 29/1/3
f 30/1/3 31/1/3 32/1/3
f 30/1/3 32/1/3 33/1/3
f 33/1/3 32/1/3 34/1/3
f 33/1/3 34/1/3 35/1/3
f 35/1/3 34/1/3 36/1/3
f 30/1/26 21/4/25 29/1/25
f 21/4/25 30/1/26 23/4/26
f 29/1/25 22/4/27 31/1/27
f 22/4/27 29/1/25 21/4/25
f 32/1/13 22/4/28 25/4/13
f 22/4/28 32/1/13 31/1/28
f 34/1/29 25/4/13 27/4/29
f 25/4/13 34/1/29 32/1/13
f 28/4/31 34/1/30 27/4/30
f 34/1/30 28/4/31 36/1/31
f 26/4/32 36/1/31 28/4/31
f 36/1/31 26/4/32 35/1/32
f 33/1/14 26/4/33 24/4/14
f 26/4/33 33/1/14 35/1/33
f 30/1/34 24/4/14 23/4/34
f 24/4/14 30/1/34 33/1/14
f 39/5/22 38/5/22 37/5/22
f 38/5/22 39/5/22 40/5/22
f 40/5/22 39/5/22 41/5/22
f 40/5/22 41/5/22 42/5/22
f 42/5/22 41/5/22 43/5/22
f 42/5/22 43/5/22 44/5/22
f 45/6/35 41/5/36 39/5/35
f 41/5/36 45/6/35 46/6/36
f 47/6/37 38/5/38 40/5/37
f 38/5/38 47/6/37 48/6/38
f 44/5/40 49/6/39 42/5/39
f 49/6/39 44/5/40 50/6/40
f 48/6/41 37/5/42 38/5/41
f 37/5/42 48/6/41 51/6/42
f 45/6/43 37/5/42 51/6/42
f 37/5/42 45/6/43 39/5/43
f 43/5/44 50/6/40 44/5/40
f 50/6/40 43/5/44 52/6/44
f 49/6/45 40/5/37 42/5/45
f 40/5/37 49/6/45 47/6/37
f 46/6/36 43/5/46 41/5/36
f 43/5/46 46/6/36 52/6/46
f 55/5/22 54/5/22 53/5/22
f 54/5/22 55/5/22 56/5/22
f 56/5/22 55/5/22 57/5/22
f 56/5/22 57/5/22 58/5/22
f 58/5/22 57/5/22 59/5/22
f 58/5/22 59/5/22 60/5/22
f 61/6/35 57/5/36 55/5/35
f 57/5/36 61/6/35 62/6/36
f 63/6/37 54/5/38 56/5/37
f 54/5/38 63/6/37 64/6/38
f 60/5/40 65/6/39 58/5/39
f 65/6/39 60/5/40 66/6/40
f 64/6/41 53/5/42 54/5/41
f 53/5/42 64/6/41 67/6/42
f 61/6/43 53/5/42 67/6/42
f 53/5/42 61/6/43 55/5/43
f 59/5/44 66/6/40 60/5/40
f 66/6/40 59/5/44 68/6/44
f 65/6/45 56/5/37 58/5/45
f 56/5/37 65/6/45 63/6/37
f 62/6/36 59/5/46 57/5/36
f 59/5/46 62/6/36 68/6/46
f 71/5/22 70/5/22 69/5/22
f 70/5/22 71/5/22 72/5/22
f 72/5/22 71/5/22 73/5/22
f 72/5/22 73/5/22 74/5/22
f 74/5/22 73/5/22 75/5/22
f 74/5/22 75/5/22 76/5/22
f 77/6/35 73/5/36 71/5/35
f 73/5/36 77/6/35 78/6/36
f 79/6/37 70/5/38 72/5/37
f 70/5/38 79/6/37 80/6/38
f 76/5/40 81/6/39 74/5/39
f 81/6/39 76/5/40 82/6/40
f 80/6/41 69/5/42 70/5/41
f 69/5/42 80/6/41 83/6/42
f 77/6/43 69/5/42 83/6/42
f 69/5/42 77/6/43 71/5/43
f 75/5/44 82/6/40 76/5/40
f 82/6/40 75/5/44 84/6/44
f 81/6/45 72/5/37 74/5/45
f 72/5/37 81/6/45 79/6/37
f 78/6/36 75/5/46 73/5/36
f 75/5/46 78/6/36 84/6/46
f 87/5/22 86/5/22 85/5/22
f 86/5/22 87/5/22 88/5/22
f 88/5/22 87/5/22 89/5/22
f 88/5/22 89/5/22 90/5/22
f 90/5/22 89/5/22 91/5/22
f 90/5/22 91/5/22 92/5/22
f 93/6/35 89/5/36 87/5/35
f 89/5/36 93/6/35 94/6/36
f 95/6/37 86/5/38 88/5/37
f 86/5/38 95/6/37 96/6/38
f 92/5/40 97/6/39 90/5/39
f 97/6/39 92/5/40 98/6/40
f 96/6/41 85/5/42 86/5/41
f 85/5/42 96/6/41 99/6/42
f 93/6/43 85/5/42 99/6/42
f 85/5/42 93/6/43 87/5/43
f 91/5/44 98/6/40 92/5/40
f 98/6/40 91/5/44 100/6/44
f 97/6/45 88/5/37 90/5/45
f 88/5/37 97/6/45 95/6/37
f 94/6/36 91/5/46 89/5/36
f 91/5/46 94/6/36 100/6/46
f 103/7/49 102/8/48 101/7/47
f 102/8/48 103/7/49 104/8/49
f 107/8/52 106/7/51 105/7/50
f 106/7/51 107/8/52 108/8/51
f 110/8/53 103/7/54 109/7/53
f 103/7/54 110/8/53 104/8/54
f 108/8/55 109/7/53 106/7/55
f 109/7/53 108/8/55 110/8/53
f 112/8/56 105/7/50 111/7/56
f 105/7/50 112/8/56 107/8/52
f 114/8/57 111/7/58 113/7/57
f 111/7/58 114/8/57 112/8/58
f 101/7/47 116/8/59 115/7/59
f 116/8/59 101/7/47 102/8/48
f 112/8/3 108/8/3 107/8/3
f 108/8/3 112/8/3 114/8/3
f 108/8/3 114/8/3 110/8/3
f 110/8/3 114/8/3 116/8/3
f 110/8/3 116/8/3 104/8/3
f 104/8/3 116/8/3 102/8/3
f 116/8/60 113/7/57 115/7/60
f 113/7/57 116/8/60 114/8/57
f 106/7/22 111/7/22 105/7/22
f 111/7/22 106/7/22 109/7/22
f 111/7/22 109/7/22 113/7/22
f 113/7/22 109/7/22 115/7/22
f 115/7/22 109/7/22 103/7/22
f 115/7/22 103/7/22 101/7/22
f 119/7/22 118/7/22 117/7/22
f 118/7/22 119/7/22 120/7/22
f 118/7/22 120/7/22 121/7/22
f 121/7/22 120/7/22 122/7/22
f 122/7/22 120/7/22 123/7/22
f 122/7/22 123/7/22 124/7/22
f 127/8/3 126/8/3 125/8/3
f 126/8/3 127/8/3 128/8/3
f 126/8/3 128/8/3 129/8/3
f 129/8/3 128/8/3 130/8/3
f 129/8/3 130/8/3 131/8/3
f 131/8/3 130/8/3 132/8/3
f 128/8/57 118/7/58 121/7/57
f 118/7/58 128/8/57 127/8/58
f 124/7/47 130/8/59 122/7/59
f 130/8/59 124/7/47 132/8/48
f 123/7/49 132/8/48 124/7/47
f 132/8/48 123/7/49 131/8/49
f 127/8/56 117/7/50 118/7/56
f 117/7/50 127/8/56 125/8/52
f 130/8/60 121/7/57 122/7/60
f 121/7/57 130/8/60 128/8/57
f 126/8/55 120/7/53 119/7/55
f 120/7/53 126/8/55 129/8/53
f 129/8/53 123/7/54 120/7/53
f 123/7/54 129/8/53 131/8/54
f 125/8/52 119/7/51 117/7/50
f 119/7/51 125/8/52 126/8/51
