{
  "accessors": [
    {
      "bufferView": 0,
      "byteOffset": 0,
      "componentType": 5126,
      "normalized": false,
      "count": 264,
      "type": "VEC3",
      "max": [
        6.25,
        5.000000074505806,
        6.25
      ],
      "min": [
        -6.25,
        0.0,
        -6.25
      ]
    },
    {
      "bufferView": 1,
      "byteOffset": 0,
      "componentType": 5126,
      "normalized": false,
      "count": 264,
      "type": "VEC3",
      "max": [
        1.0,
        1.0,
        1.0
      ],
      "min": [
        -1.0,
        -1.0,
        -1.0
      ]
    },
    {
      "bufferView": 2,
      "byteOffset": 0,
      "componentType": 5126,
      "normalized": false,
      "count": 264,
      "type": "VEC4",
      "max": [
        1.0,
        0.0,
        1.0000001192092896,
        1.0
      ],
      "min": [
        -1.0,
        0.0,
        -1.0000001192092896,
        1.0
      ]
    },
    {
      "bufferView": 3,
      "byteOffset": 0,
      "componentType": 5126,
      "normalized": false,
      "count": 264,
      "type": "VEC2",
      "max": [
        0.46875,
        0.9750000238418579
      ],
      "min": [
        0.09375,
        0.675000011920929
      ]
    },
    {
      "bufferView": 4,
      "byteOffset": 0,
      "componentType": 5123,
      "normalized": false,
      "count": 444,
      "type": "SCALAR",
      "max": [
        263.0
      ],
      "min": [
        0.0
      ]
    },
    {
      "bufferView": 5,
      "byteOffset": 0,
      "componentType": 5126,
      "normalized": false,
      "count": 226,
      "type": "VEC3",
      "max": [
        6.25,
        6.25,
        11.249999701976776
      ],
      "min": [
        -6.25,
        -1.2500000186264515,
        -1.2500000186264515
      ]
    },
    {
      "bufferView": 6,
      "byteOffset": 0,
      "componentType": 5126,
      "normalized": false,
      "count": 226,
      "type": "VEC3",
      "max": [
        1.0,
        1.0,
        1.0
      ],
      "min": [
        -1.0,
        -1.0,
        -1.0
      ]
    },
    {
      "bufferView": 7,
      "byteOffset": 0,
      "componentType": 5126,
      "normalized": false,
      "count": 226,
      "type": "VEC4",
      "max": [
        1.0,
        0.7071068286895752,
        1.0,
        1.0
      ],
      "min": [
        -1.0,
        -0.7071068286895752,
        -1.0,
        1.0
      ]
    },
    {
      "bufferView": 8,
      "byteOffset": 0,
      "componentType": 5126,
      "normalized": false,
      "count": 226,
      "type": "VEC2",
      "max": [
        0.21875,
        0.8550000190734863
      ],
      "min": [
        0.09375,
        0.7250000238418579
      ]
    },
    {
      "bufferView": 9,
      "byteOffset": 0,
      "componentType": 5121,
      "normalized": false,
      "count": 420,
      "type": "SCALAR",
      "max": [
        225.0
      ],
      "min": [
        0.0
      ]
    },
    {
      "bufferView": 10,
      "byteOffset": 0,
      "componentType": 5126,
      "normalized": false,
      "count": 2,
      "type": "SCALAR",
      "max": [
        0.30000001192092896
      ],
      "min": [
        0.0
      ]
    },
    {
      "bufferView": 11,
      "byteOffset": 0,
      "componentType": 5126,
      "normalized": false,
      "count": 2,
      "type": "VEC3",
      "max": [
        -3.725298292067691e-09,
        0.20000000298023224,
        -0.20000000298023224
      ],
      "min": [
        -3.725298292067691e-09,
        0.20000000298023224,
        -0.20000000298023224
      ]
    },
    {
      "bufferView": 12,
      "byteOffset": 0,
      "componentType": 5126,
      "normalized": false,
      "count": 9,
      "type": "SCALAR",
      "max": [
        0.30000001192092896
      ],
      "min": [
        0.0
      ]
    },
    {
      "bufferView": 13,
      "byteOffset": 0,
      "componentType": 5126,
      "normalized": false,
      "count": 9,
      "type": "VEC4",
      "max": [
        0.41830238699913025,
        0.0,
        0.0,
        -0.9083078503608704
      ],
      "min": [
        8.719671487668538e-17,
        0.0,
        0.0,
        -1.0
      ]
    },
    {
      "bufferView": 14,
      "byteOffset": 0,
      "componentType": 5126,
      "normalized": false,
      "count": 2,
      "type": "SCALAR",
      "max": [
        0.30000001192092896
      ],
      "min": [
        0.0
      ]
    },
    {
      "bufferView": 15,
      "byteOffset": 0,
      "componentType": 5126,
      "normalized": false,
      "count": 2,
      "type": "VEC3",
      "max": [
        1.0,
        1.0,
        1.0
      ],
      "min": [
        1.0,
        1.0,
        1.0
      ]
    },
    {
      "bufferView": 16,
      "byteOffset": 0,
      "componentType": 5126,
      "normalized": false,
      "count": 2,
      "type": "SCALAR",
      "max": [
        1.0
      ],
      "min": [
        0.0
      ]
    },
    {
      "bufferView": 17,
      "byteOffset": 0,
      "componentType": 5126,
      "normalized": false,
      "count": 2,
      "type": "VEC3",
      "max": [
        -3.725298292067691e-09,
        0.20000000298023224,
        -0.20000000298023224
      ],
      "min": [
        -3.725298292067691e-09,
        0.20000000298023224,
        -0.20000000298023224
      ]
    },
    {
      "bufferView": 18,
      "byteOffset": 0,
      "componentType": 5126,
      "normalized": false,
      "count": 30,
      "type": "SCALAR",
      "max": [
        1.0
      ],
      "min": [
        0.0
      ]
    },
    {
      "bufferView": 19,
      "byteOffset": 0,
      "componentType": 5126,
      "normalized": false,
      "count": 30,
      "type": "VEC4",
      "max": [
        0.38268348574638367,
        0.0,
        0.0,
        -0.9238795638084412
      ],
      "min": [
        0.0,
        0.0,
        0.0,
        -1.0
      ]
    },
    {
      "bufferView": 20,
      "byteOffset": 0,
      "componentType": 5126,
      "normalized": false,
      "count": 2,
      "type": "SCALAR",
      "max": [
        1.0
      ],
      "min": [
        0.0
      ]
    },
    {
      "bufferView": 21,
      "byteOffset": 0,
      "componentType": 5126,
      "normalized": false,
      "count": 2,
      "type": "VEC3",
      "max": [
        1.0,
        1.0,
        1.0
      ],
      "min": [
        1.0,
        1.0,
        1.0
      ]
    },
    {
      "bufferView": 22,
      "byteOffset": 0,
      "componentType": 5126,
      "normalized": false,
      "count": 2,
      "type": "SCALAR",
      "max": [
        2.0
      ],
      "min": [
        0.0
      ]
    },
    {
      "bufferView": 23,
      "byteOffset": 0,
      "componentType": 5126,
      "normalized": false,
      "count": 2,
      "type": "VEC3",
      "max": [
        -3.725298292067691e-09,
        0.20000000298023224,
        -0.20000000298023224
      ],
      "min": [
        -3.725298292067691e-09,
        0.20000000298023224,
        -0.20000000298023224
      ]
    },
    {
      "bufferView": 24,
      "byteOffset": 0,
      "componentType": 5126,
      "normalized": false,
      "count": 60,
      "type": "SCALAR",
      "max": [
        2.0
      ],
      "min": [
        0.0
      ]
    },
    {
      "bufferView": 25,
      "byteOffset": 0,
      "componentType": 5126,
      "normalized": false,
      "count": 60,
      "type": "VEC4",
      "max": [
        0.41830238699913025,
        0.0,
        0.0,
        -0.9083078503608704
      ],
      "min": [
        0.0,
        0.0,
        0.0,
        -1.0
      ]
    },
    {
      "bufferView": 26,
      "byteOffset": 0,
      "componentType": 5126,
      "normalized": false,
      "count": 2,
      "type": "SCALAR",
      "max": [
        2.0
      ],
      "min": [
        0.0
      ]
    },
    {
      "bufferView": 27,
      "byteOffset": 0,
      "componentType": 5126,
      "normalized": false,
      "count": 2,
      "type": "VEC3",
      "max": [
        1.0,
        1.0,
        1.0
      ],
      "min": [
        1.0,
        1.0,
        1.0
      ]
    },
    {
      "bufferView": 28,
      "byteOffset": 0,
      "componentType": 5126,
      "normalized": false,
      "count": 6,
      "type": "SCALAR",
      "max": [
        3.4500000119209293
      ],
      "min": [
        0.05
      ]
    },
    {
      "bufferView": 29,
      "byteOffset": 0,
      "componentType": 5126,
      "normalized": false,
      "count": 6,
      "type": "VEC3",
      "max": [
        -9.313245730169228e-08,
        5.000000074505806,
        -5.000000074505806
      ],
      "min": [
        -9.313245730169228e-08,
        5.000000074505806,
        -5.000000074505806
      ]
    },
    {
      "bufferView": 30,
      "byteOffset": 0,
      "componentType": 5126,
      "normalized": false,
      "count": 99,
      "type": "SCALAR",
      "max": [
        3.4500000119209293
      ],
      "min": [
        0.05
      ]
    },
    {
      "bufferView": 31,
      "byteOffset": 0,
      "componentType": 5126,
      "normalized": false,
      "count": 99,
      "type": "VEC4",
      "max": [
        0.41830238699913025,
        0.0,
        0.0,
        -0.9083078503608704
      ],
      "min": [
        -0.0,
        0.0,
        0.0,
        -1.0
      ]
    },
    {
      "bufferView": 32,
      "byteOffset": 0,
      "componentType": 5126,
      "normalized": false,
      "count": 6,
      "type": "SCALAR",
      "max": [
        3.4500000119209293
      ],
      "min": [
        0.05
      ]
    },
    {
      "bufferView": 33,
      "byteOffset": 0,
      "componentType": 5126,
      "normalized": false,
      "count": 6,
      "type": "VEC3",
      "max": [
        1.0,
        1.0,
        1.0
      ],
      "min": [
        1.0,
        1.0,
        1.0
      ]
    }
  ],
  "animations": [
    {
      "name": "combined",
      "channels": [
        {
          "sampler": 0,
          "target": {
            "node": 1,
            "path": "translation"
          }
        },
        {
          "sampler": 1,
          "target": {
            "node": 1,
            "path": "rotation"
          }
        },
        {
          "sampler": 2,
          "target": {
            "node": 1,
            "path": "scale"
          }
        }
      ],
      "samplers": [
        {
          "input": 28,
          "interpolation": "LINEAR",
          "output": 29
        },
        {
          "input": 30,
          "interpolation": "LINEAR",
          "output": 31
        },
        {
          "input": 32,
          "interpolation": "LINEAR",
          "output": 33
        }
      ]
    }
  ],
  "asset": {
    "generator": "pygltflib@v1.16.5",
    "version": "2.0"
  },
  "bufferViews": [
    {
      "buffer": 0,
      "byteOffset": 0,
      "byteLength": 3168,
      "byteStride": 12,
      "target": 34962
    },
    {
      "buffer": 0,
      "byteOffset": 3168,
      "byteLength": 3168,
      "byteStride": 12,
      "target": 34962
    },
    {
      "buffer": 0,
      "byteOffset": 6336,
      "byteLength": 4224,
      "target": 34962
    },
    {
      "buffer": 0,
      "byteOffset": 10560,
      "byteLength": 2112,
      "target": 34962
    },
    {
      "buffer": 0,
      "byteOffset": 12672,
      "byteLength": 888,
      "target": 34963
    },
    {
      "buffer": 0,
      "byteOffset": 13560,
      "byteLength": 2712,
      "byteStride": 12,
      "target": 34962
    },
    {
      "buffer": 0,
      "byteOffset": 16272,
      "byteLength": 2712,
      "byteStride": 12,
      "target": 34962
    },
    {
      "buffer": 0,
      "byteOffset": 18984,
      "byteLength": 3616,
      "target": 34962
    },
    {
      "buffer": 0,
      "byteOffset": 22600,
      "byteLength": 1808,
      "target": 34962
    },
    {
      "buffer": 0,
      "byteOffset": 24408,
      "byteLength": 420,
      "target": 34963
    },
    {
      "buffer": 0,
      "byteOffset": 24828,
      "byteLength": 8
    },
    {
      "buffer": 0,
      "byteOffset": 24836,
      "byteLength": 24
    },
    {
      "buffer": 0,
      "byteOffset": 24860,
      "byteLength": 36
    },
    {
      "buffer": 0,
      "byteOffset": 24896,
      "byteLength": 144
    },
    {
      "buffer": 0,
      "byteOffset": 25040,
      "byteLength": 8
    },
    {
      "buffer": 0,
      "byteOffset": 25048,
      "byteLength": 24
    },
    {
      "buffer": 0,
      "byteOffset": 25072,
      "byteLength": 8
    },
    {
      "buffer": 0,
      "byteOffset": 25080,
      "byteLength": 24
    },
    {
      "buffer": 0,
      "byteOffset": 25104,
      "byteLength": 120
    },
    {
      "buffer": 0,
      "byteOffset": 25224,
      "byteLength": 480
    },
    {
      "buffer": 0,
      "byteOffset": 25704,
      "byteLength": 8
    },
    {
      "buffer": 0,
      "byteOffset": 25712,
      "byteLength": 24
    },
    {
      "buffer": 0,
      "byteOffset": 25736,
      "byteLength": 8
    },
    {
      "buffer": 0,
      "byteOffset": 25744,
      "byteLength": 24
    },
    {
      "buffer": 0,
      "byteOffset": 25768,
      "byteLength": 240
    },
    {
      "buffer": 0,
      "byteOffset": 26008,
      "byteLength": 960
    },
    {
      "buffer": 0,
      "byteOffset": 26968,
      "byteLength": 8
    },
    {
      "buffer": 0,
      "byteOffset": 26976,
      "byteLength": 24
    },
    {
      "buffer": 0,
      "byteOffset": 27000,
      "byteLength": 24
    },
    {
      "buffer": 0,
      "byteOffset": 27024,
      "byteLength": 72
    },
    {
      "buffer": 0,
      "byteOffset": 27096,
      "byteLength": 396
    },
    {
      "buffer": 0,
      "byteOffset": 27492,
      "byteLength": 1584
    },
    {
      "buffer": 0,
      "byteOffset": 29076,
      "byteLength": 24
    },
    {
      "buffer": 0,
      "byteOffset": 29100,
      "byteLength": 72
    }
  ],
  "buffers": [
    {
      "byteLength": 29172,
      "uri": "data:application/octet-stream;base64,"
    }
  ],
  "extensionsUsed": [
    "KHR_texture_transform"
  ],
  "images": [
    {
      "uri": "Textures/colormap.png",
      "name": "colormap"
    }
  ],
  "materials": [
    {
      "pbrMetallicRoughness": {
        "baseColorFactor": [
          1.0,
          1.0,
          1.0,
          1.0
        ],
        "metallicFactor": 0.0,
        "roughnessFactor": 1.0,
        "baseColorTexture": {
          "extensions": {
            "KHR_texture_transform": {
              "texCoord": 0
            }
          },
          "index": 0,
          "texCoord": 0
        }
      },
      "emissiveFactor": [
        0.0,
        0.0,
        0.0
      ],
      "alphaMode": "OPAQUE",
      "doubleSided": true,
      "name": "colormap"
    }
  ],
  "meshes": [
    {
      "primitives": [
        {
          "attributes": {
            "POSITION": 0,
            "NORMAL": 1,
            "TANGENT": 2,
            "TEXCOORD_0": 3
          },
          "indices": 4,
          "mode": 4,
          "material": 0
        }
      ],
      "name": "chest"
    },
    {
      "primitives": [
        {
          "attributes": {
            "POSITION": 5,
            "NORMAL": 6,
            "TANGENT": 7,
            "TEXCOORD_0": 8
          },
          "indices": 9,
          "mode": 4,
          "material": 0
        }
      ],
      "name": "lid"
    }
  ],
  "nodes": [
    {
      "mesh": 0,
      "translation": [
        0.0,
        -12.5,
        0.0
      ],
      "children": [
        1
      ],
      "name": "chest"
    },
    {
      "mesh": 1,
      "translation": [
        -9.313245725000001e-08,
        5.0,
        -5.0
      ],
      "name": "lid"
    }
  ],
  "samplers": [
    {
      "minFilter": 9987,
      "wrapS": 10497,
      "wrapT": 10497
    }
  ],
  "scene": 0,
  "scenes": [
    {
      "name": "chest",
      "nodes": [
        0
      ]
    }
  ],
  "textures": [
    {
      "sampler": 0,
      "source": 0,
      "name": "colormap"
    }
  ]
}